<mxfile host="app.diagrams.net" modified="2024-01-24T11:48:51.330Z" agent="Mozilla/5.0 (Macintosh; Intel Mac OS X 10_15_7) AppleWebKit/605.1.15 (KHTML, like Gecko) Version/17.2.1 Safari/605.1.15" version="22.1.21" etag="X8vK9AnxiWmtFTnp3NIC" type="github">
  <diagram name="Page-1" id="0ZTlAJt3fddcgk5YJp6G">
    <mxGraphModel>
      <root>
        <mxCell id="0" />
        <mxCell id="1" parent="0" />
      </root>
    </mxGraphModel>
  </diagram>
</mxfile>
